<svg width="13" height="14" viewBox="0 0 13 14" fill="none" xmlns="http://www.w3.org/2000/svg">
<path d="M5.5 2H7.5C7.5 1.73478 7.39464 1.48043 7.20711 1.29289C7.01957 1.10536 6.76522 1 6.5 1C6.23478 1 5.98043 1.10536 5.79289 1.29289C5.60536 1.48043 5.5 1.73478 5.5 2ZM4.5 2C4.5 1.46957 4.71071 0.960859 5.08579 0.585786C5.46086 0.210714 5.96957 0 6.5 0C7.03043 0 7.53914 0.210714 7.91421 0.585786C8.28929 0.960859 8.5 1.46957 8.5 2H12.5C12.6326 2 12.7598 2.05268 12.8536 2.14645C12.9473 2.24021 13 2.36739 13 2.5C13 2.63261 12.9473 2.75979 12.8536 2.85355C12.7598 2.94732 12.6326 3 12.5 3H11.936L10.731 11.838C10.6493 12.4369 10.3533 12.986 9.8979 13.3835C9.44249 13.781 8.85848 14 8.254 14H4.746C4.14152 14 3.55751 13.781 3.1021 13.3835C2.64669 12.986 2.35073 12.4369 2.269 11.838L1.064 3H0.5C0.367392 3 0.240215 2.94732 0.146447 2.85355C0.0526784 2.75979 0 2.63261 0 2.5C0 2.36739 0.0526784 2.24021 0.146447 2.14645C0.240215 2.05268 0.367392 2 0.5 2H4.5ZM5.5 5.5C5.5 5.36739 5.44732 5.24021 5.35355 5.14645C5.25979 5.05268 5.13261 5 5 5C4.86739 5 4.74021 5.05268 4.64645 5.14645C4.55268 5.24021 4.5 5.36739 4.5 5.5V10.5C4.5 10.6326 4.55268 10.7598 4.64645 10.8536C4.74021 10.9473 4.86739 11 5 11C5.13261 11 5.25979 10.9473 5.35355 10.8536C5.44732 10.7598 5.5 10.6326 5.5 10.5V5.5ZM8 5C8.13261 5 8.25979 5.05268 8.35355 5.14645C8.44732 5.24021 8.5 5.36739 8.5 5.5V10.5C8.5 10.6326 8.44732 10.7598 8.35355 10.8536C8.25979 10.9473 8.13261 11 8 11C7.86739 11 7.74021 10.9473 7.64645 10.8536C7.55268 10.7598 7.5 10.6326 7.5 10.5V5.5C7.5 5.36739 7.55268 5.24021 7.64645 5.14645C7.74021 5.05268 7.86739 5 8 5ZM3.26 11.703C3.30908 12.0623 3.48664 12.3916 3.75984 12.6301C4.03304 12.8685 4.38337 13 4.746 13H8.254C8.6168 13.0002 8.96737 12.8689 9.24078 12.6304C9.51419 12.3919 9.6919 12.0625 9.741 11.703L10.927 3H2.073L3.26 11.703Z" fill="black"/>
</svg>
